# xmcd
#
# Track frame offsets:
# 150
# 13902
# 32703
# 48485
# 66304
# 83414
# 103921
# 115790
# 132082
# 150148
# 166704
# 185782
# 200708
# 219545
#
# Disc length: 3148 seconds
#
#
# Revision: 6
# Processed by: cddbd v1.5.2PL0 Copyright (c) Steve Scherf et al.
# Submitted via: FreeRIP 2.90 
#
DISCID=bb0c4a0e
DTITLE=Bruno and Marrone - Sonhos, Planos, Fantasias
DYEAR=2002
DGENRE=Sertanejo
TTITLE0=Credo em Cruz Ave-Maria
TTITLE1=Agora Vai
TTITLE2=Anjo De Amor
TTITLE3=Eu Queria
TTITLE4=Então Pode Ir
TTITLE5=Se Tiver Coragem Joga Fora
TTITLE6=Tá Liberado
TTITLE7=Menina
TTITLE8=Raio de Luar
TTITLE9=Cama Vazia
TTITLE10=Remar Contra A Maré
TTITLE11=Telefone Mudo
TTITLE12=Noite Sem Sono
TTITLE13=Metade da Metade
EXTD=YEAR: 2002
EXTT0=
EXTT1=
EXTT2=
EXTT3=
EXTT4=
EXTT5=
EXTT6=
EXTT7=
EXTT8=
EXTT9=
EXTT10=
EXTT11=
EXTT12=
EXTT13=
PLAYORDER=
